<svg width="69" height="69" viewBox="0 0 69 69" fill="none" xmlns="http://www.w3.org/2000/svg">
<g filter="url(#filter0_di_994_406)">
<circle cx="26.4996" cy="26.4994" r="18.4994" transform="rotate(-180 26.4996 26.4994)" fill="#F1F5F9"/>
</g>
<path d="M29.6013 31.0947C32.268 31.428 37.6013 31.1947 37.6013 27.5947C37.6014 23.9947 34.6013 22.428 33.1013 22.0947C32.768 20.428 31.1013 16.8947 27.1013 16.0947C23.1013 15.2947 21.1013 19.7613 20.6013 22.0947C18.4347 22.2613 14.3013 23.5947 15.1013 27.5947C15.9013 31.5947 21.1013 31.5947 23.6013 31.0947M26.6013 26.0947V37.0947M26.6013 37.0947L23.6013 34.0947M26.6013 37.0947L29.6013 34.0947" stroke="#74719E" stroke-width="2" stroke-linecap="round"/>
<defs>
<filter id="filter0_di_994_406" x="-2" y="-2" width="70.999" height="70.9988" filterUnits="userSpaceOnUse" color-interpolation-filters="sRGB">
<feFlood flood-opacity="0" result="BackgroundImageFix"/>
<feColorMatrix in="SourceAlpha" type="matrix" values="0 0 0 0 0 0 0 0 0 0 0 0 0 0 0 0 0 0 127 0" result="hardAlpha"/>
<feOffset dx="8" dy="8"/>
<feGaussianBlur stdDeviation="8"/>
<feComposite in2="hardAlpha" operator="out"/>
<feColorMatrix type="matrix" values="0 0 0 0 0.79 0 0 0 0 0.85 0 0 0 0 0.91 0 0 0 1 0"/>
<feBlend mode="normal" in2="BackgroundImageFix" result="effect1_dropShadow_994_406"/>
<feBlend mode="normal" in="SourceGraphic" in2="effect1_dropShadow_994_406" result="shape"/>
<feColorMatrix in="SourceAlpha" type="matrix" values="0 0 0 0 0 0 0 0 0 0 0 0 0 0 0 0 0 0 127 0" result="hardAlpha"/>
<feOffset dx="-10" dy="-10"/>
<feGaussianBlur stdDeviation="10"/>
<feComposite in2="hardAlpha" operator="arithmetic" k2="-1" k3="1"/>
<feColorMatrix type="matrix" values="0 0 0 0 1 0 0 0 0 1 0 0 0 0 1 0 0 0 1 0"/>
<feBlend mode="normal" in2="shape" result="effect2_innerShadow_994_406"/>
</filter>
</defs>
</svg> 