<svg xmlns="http://www.w3.org/2000/svg" width="69" height="69" viewBox="0 0 69 69" fill="none">
  <g filter="url(#filter0_di_139_2952)">
    <circle cx="26.4987" cy="26.4996" r="18.4994" transform="rotate(-180 26.4987 26.4996)" fill="#F1F5F9"/>
  </g>
  <path d="M28.9998 31.5004C31.6664 31.8338 36.9997 31.6004 36.9998 28.0004C36.9998 24.4004 33.9998 22.8338 32.4998 22.5004C32.1664 20.8338 30.4998 17.3004 26.4998 16.5004C22.4998 15.7004 20.4998 20.1671 19.9998 22.5004C17.8331 22.6671 13.6998 24.0004 14.4998 28.0004C15.2998 32.0004 20.4998 32.0004 22.9998 31.5004M25.9998 26.5004V37.5004M25.9998 37.5004L22.9998 34.5004M25.9998 37.5004L28.9998 34.5004" stroke="#74719E" stroke-width="2" stroke-linecap="round"/>
  <defs>
    <filter id="filter0_di_139_2952" x="-2" y="-2" width="70.998" height="70.999" filterUnits="userSpaceOnUse" color-interpolation-filters="sRGB">
      <feFlood flood-opacity="0" result="BackgroundImageFix"/>
      <feColorMatrix in="SourceAlpha" type="matrix" values="0 0 0 0 0 0 0 0 0 0 0 0 0 0 0 0 0 0 127 0" result="hardAlpha"/>
      <feOffset dx="8" dy="8"/>
      <feGaussianBlur stdDeviation="8"/>
      <feComposite in2="hardAlpha" operator="out"/>
      <feColorMatrix type="matrix" values="0 0 0 0 0.79 0 0 0 0 0.85 0 0 0 0 0.91 0 0 0 1 0"/>
      <feBlend mode="normal" in2="BackgroundImageFix" result="effect1_dropShadow_139_2952"/>
      <feBlend mode="normal" in="SourceGraphic" in2="effect1_dropShadow_139_2952" result="shape"/>
      <feColorMatrix in="SourceAlpha" type="matrix" values="0 0 0 0 0 0 0 0 0 0 0 0 0 0 0 0 0 0 127 0" result="hardAlpha"/>
      <feOffset dx="-10" dy="-10"/>
      <feGaussianBlur stdDeviation="10"/>
      <feComposite in2="hardAlpha" operator="arithmetic" k2="-1" k3="1"/>
      <feColorMatrix type="matrix" values="0 0 0 0 1 0 0 0 0 1 0 0 0 0 1 0 0 0 1 0"/>
      <feBlend mode="normal" in2="shape" result="effect2_innerShadow_139_2952"/>
    </filter>
  </defs>
</svg>